# xmcd
#
# Track frame offsets:
#	150
#	12160
#	21328
#	26428
#	38013
#	44393
#	54475
#	63415
#	70223
#	76225
#	85903
#	92350
#	100795
#	107678
#	113930
#	122120
#	130670
#	142193
#	159330
#	167998
#	175808
#	181335
#	187570
#	193148
#	198988
#	206155
#	215285
#	221890
#	227623
#	234445
#	242438
#
# Disc length: 3313 seconds
#
# Revision: 0
# Processed by: cddbd v1.5.1PL0 Copyright (c) Steve Scherf et al.
# Submitted via: dBpowerAMP V4.0
#
DISCID=a30cef1f
DTITLE=Mukkuri Hawehe - Sound of Mukkuri - Jew's Harp and Vocal Music of the Ainu 
DYEAR=2001
DGENRE=Easy Listening
TTITLE0=A Bear with a Cub - mukkuri - TESHI Shingiko
TTITLE1=Dedicated to the Rivers of the world /mukkuri - TESHI Shingiko
TTITLE2=Ikammukka Sauke - upopo song from Akan
TTITLE3=Water Striders' Rimse (dance) - mukkuri :TESHI Shingko
TTITLE4=Itasankata - upopo song from Akan 
TTITLE5=Winter Forest - mukkuri - TOKO Midori 
TTITLE6=The Forest is Thawing - mukkuri - TOKO Midori 
TTITLE7=Karakara - upopo song from Akan
TTITLE8=A Talk between Friends /mukkuri - TOKO Midori, YAMAMOTO Eiko 
TTITLE9=Footsteps of the Spring  - mukkuri - YAMAMOTO Eiko 
TTITLE10=Saoi  - upopo song from Akan 
TTITLE11=Cuckoo - mukkuri - YAMAMOTO Eiko 
TTITLE12=Storm - mukkuri - ISOJIMA  Emiko
TTITLE13=Kapiw Upopo - upopo somg from Akan 
TTITLE14=Lakes - mukkuri - TESHI Shigoko, ISOJIMA Emiko
TTITLE15=Ara Huu-ya - upopo song from Akan
TTITLE16=Spring Steam - mukkuri - IMAI Noriko
TTITLE17=View of a Garden - mukkuri IMAI Noriko 
TTITLE18=Urara Suye - upopo song from Urakawa  
TTITLE19=Frog's Chorus - mukkuri sextet
TTITLE20=Kamuy Ihumke upopo song from Urakawa
TTITLE21=Kamuy  Upopo - upopo song from Urakawa 
TTITLE22=Hoiyapna - upopo song  from Urakawa
TTITLE23=Kamuy Rimse - upopo song from Urakawa
TTITLE24=Hanro Ussa - upopo song from Urakawa 
TTITLE25=Pasture - mukkuri: HORI Etsuko 
TTITLE26=Ni ka ta Kuikui - upopo song from Urakawa 
TTITLE27=A Talk between Mother and Daughter - mukkuri: TOYAMA Saki 
TTITLE28=Ihoren  - upopo song from Urakawa
TTITLE29=The Sea is Rumbling - mukkuri - TOYAMA Saki 
TTITLE30=Kotankor Kamuy - upopo song from Urakawa
EXTD=Sound of Mukkuri - Jew's Harp and Vocal Music of the Ainu 
EXTT0=
EXTT1=
EXTT2=
EXTT3=
EXTT4=
EXTT5=
EXTT6=
EXTT7=
EXTT8=
EXTT9=
EXTT10=
EXTT11=
EXTT12=
EXTT13=
EXTT14=
EXTT15=
EXTT16=
EXTT17=
EXTT18=
EXTT19=
EXTT20=
EXTT21=
EXTT22=
EXTT23=
EXTT24=
EXTT25=
EXTT26=
EXTT27=
EXTT28=
EXTT29=
EXTT30=
PLAYORDER=
